<?xml version="1.0" encoding="utf-8"?>
<!-- Generator: Adobe Illustrator 23.0.0, SVG Export Plug-In . SVG Version: 6.00 Build 0)  -->
<svg version="1.1" id="Layer_1" xmlns="http://www.w3.org/2000/svg" xmlns:xlink="http://www.w3.org/1999/xlink" x="0px" y="0px"
	 viewBox="0 0 416 153" style="enable-background:new 0 0 416 153;" xml:space="preserve">
<style type="text/css">
	.st0{fill:#FFFFFF;}
	.st1{fill:#ED1C24;}
</style>
<g>
	<path d="M396.74,34.31c1.76-3.25,1.67-7.22-0.21-10.36c-1.88-3.16-5.34-5.13-9.03-5.13h-14.25c-3.12,0-6,1.35-7.97,3.66
		c-1.93-2.26-4.81-3.66-7.98-3.66H50.44c-4.62,0-8.64,2.96-10.01,7.35L36.65,38.2h-0.74c-5,0-9.33,3.56-10.3,8.46l-1.64,8.28
		c-0.33,1.63-0.27,3.28,0.16,4.84c-0.89,1.21-1.53,2.62-1.85,4.16l-1.62,8.19c-0.62,3.03,0.12,6.15,2.04,8.58l-4.22,13.43
		c-1,3.18-0.42,6.68,1.56,9.37c1.89,2.56,4.85,4.13,8,4.27l-0.3,18.57c-0.05,2.83,1.06,5.6,2.99,7.53c1.96,2.01,4.69,3.16,7.51,3.16
		h331.68c5.79,0,10.5-4.71,10.5-10.5v-1.27c1.06-0.59,2.05-1.3,2.95-2.14c5.72-5.29,5.85-13.74,3.54-19.35
		c-2.4-5.83-8.03-9.46-14.71-9.46h-0.4l3.61-20.5L396.74,34.31z"/>
	<g id="Day2Day_2_">
		<path class="st1" d="M28.5,97.3l7.25-23.07h-4.8l1.64-8.24h5.95l2.78-8.97h-7.06l1.65-8.32h8.44l6.09-19.38h10.38L54.68,48.7h7.52
			l6.14-19.38h10.28L72.48,48.7H77l-1.6,8.32h-5.9l-2.83,8.97h7.01l-1.59,8.24h-8.21l-7.3,23.07H46.3l7.3-23.07h-7.56l-7.3,23.07
			H28.5z M48.77,65.99h7.61l2.83-8.97h-7.56L48.77,65.99z"/>
		<path class="st1" d="M72.37,97.26l11.98-67.93h18.58c4.83,0,8.78,0.4,11.85,1.19c3.07,0.79,5.41,2.09,7.02,3.89
			c1.6,1.8,2.58,3.99,2.92,6.58c0.34,2.58,0.17,5.81-0.51,9.69l-4.32,24.5c-0.69,3.93-1.68,7.24-2.95,9.91
			c-1.27,2.68-3.03,4.95-5.26,6.82c-2.24,1.87-5.01,3.23-8.33,4.08c-3.32,0.85-7.33,1.27-12.03,1.27H72.37z M89.61,87.63h3.23
			c1.08,0,2.05-0.05,2.91-0.16c0.86-0.11,1.63-0.3,2.29-0.57c0.66-0.27,1.23-0.55,1.72-0.84c0.48-0.29,0.92-0.7,1.3-1.25
			c0.39-0.55,0.71-1.06,0.96-1.54c0.25-0.48,0.49-1.14,0.72-1.99c0.23-0.85,0.4-1.6,0.54-2.25c0.13-0.66,0.3-1.54,0.49-2.66
			l4.8-27.25c0.28-1.61,0.46-2.89,0.54-3.85c0.08-0.96,0.02-1.88-0.16-2.77c-0.18-0.89-0.56-1.55-1.15-1.99
			c-0.58-0.44-1.41-0.78-2.47-1.04c-1.06-0.26-2.42-0.39-4.08-0.39h-3.09L89.61,87.63z"/>
		<path class="st1" d="M115.72,97.26l26.92-67.93h17.06l2.92,67.93h-14.43l-0.16-15.04H135.9l-5.46,15.04H115.72z M138.88,73.66
			h9.08l0.2-27.04L138.88,73.66z"/>
		<path class="st1" d="M172.17,97.26l4.75-26.92l-7.76-41.01h14.57l4.02,24.01l11.93-24.01h14.25l-22.13,41.01l-4.75,26.92H172.17z"
			/>
		<path class="st1" d="M201.88,97.26l1.61-9.14l22.89-25.44c0.27-0.3,1.16-1.28,2.68-2.93c1.52-1.65,2.53-2.79,3.02-3.4
			c0.49-0.61,1.23-1.59,2.22-2.93c0.99-1.34,1.72-2.57,2.2-3.71c0.48-1.13,0.82-2.31,1.04-3.54c0.41-2.35,0.19-4.12-0.67-5.33
			c-0.74-1.04-1.91-1.56-3.51-1.56c-0.25,0-0.51,0.01-0.79,0.04c-4.09,0.33-6.69,3.69-7.82,10.08l-0.54,3.07h-14.2l0.58-3.28
			c0.55-3.11,1.43-5.91,2.63-8.38c1.2-2.47,2.77-4.66,4.71-6.56c1.93-1.9,4.34-3.36,7.23-4.38c2.89-1.02,6.14-1.54,9.77-1.54
			c6.64,0,11.39,1.57,14.25,4.71c2.86,3.14,3.79,7.55,2.79,13.23c-0.34,1.94-0.89,3.79-1.65,5.55c-0.76,1.76-1.76,3.49-3.01,5.18
			c-1.25,1.69-2.39,3.13-3.41,4.32c-1.02,1.19-2.41,2.7-4.14,4.53c-0.56,0.57-0.98,1.01-1.25,1.31l-18.25,19.79h22.5l-1.81,10.28
			H201.88z"/>
		<path class="st1" d="M245.93,97.26l11.98-67.93h18.58c4.83,0,8.78,0.4,11.85,1.19c3.07,0.79,5.41,2.09,7.02,3.89
			c1.6,1.8,2.58,3.99,2.92,6.58c0.34,2.58,0.17,5.81-0.51,9.69l-4.32,24.5c-0.69,3.93-1.68,7.24-2.95,9.91
			c-1.27,2.68-3.03,4.95-5.26,6.82c-2.24,1.87-5.01,3.23-8.33,4.08c-3.32,0.85-7.33,1.27-12.03,1.27H245.93z M263.16,87.63h3.23
			c1.08,0,2.05-0.05,2.91-0.16c0.86-0.11,1.63-0.3,2.29-0.57c0.66-0.27,1.23-0.55,1.72-0.84c0.48-0.29,0.92-0.7,1.3-1.25
			c0.39-0.55,0.71-1.06,0.96-1.54c0.25-0.48,0.49-1.14,0.72-1.99c0.23-0.85,0.4-1.6,0.54-2.25c0.13-0.66,0.3-1.54,0.49-2.66
			l4.8-27.25c0.28-1.61,0.46-2.89,0.54-3.85c0.08-0.96,0.02-1.88-0.16-2.77c-0.18-0.89-0.56-1.55-1.15-1.99
			c-0.58-0.44-1.41-0.78-2.47-1.04c-1.06-0.26-2.42-0.39-4.08-0.39h-3.09L263.16,87.63z"/>
		<path class="st1" d="M289.28,97.26l26.92-67.93h17.06l2.92,67.93h-14.43l-0.16-15.04h-12.13l-5.46,15.04H289.28z M312.44,73.66
			h9.08l0.2-27.04L312.44,73.66z"/>
		<path class="st1" d="M345.73,97.26l4.75-26.92l-7.76-41.01h14.57l4.02,24.01l11.93-24.01h14.25l-22.13,41.01l-4.75,26.92H345.73z"
			/>
		<path class="st1" d="M38.24,126.55l0.35-21.71h4.06l3.14,15.26l3.23-15.26H53l0.37,21.71h-2.99l-0.26-14.95l-3.13,14.95h-2.32
			l-3.17-15.01l-0.24,15.01H38.24z"/>
		<path class="st1" d="M56.57,126.55v-21.71h9.09v2.79h-5.13v6.23h4.06v2.79h-4.06v7.16h5.2v2.74H56.57z"/>
		<path class="st1" d="M68,126.55v-21.71h5.05c1.31,0,2.4,0.13,3.29,0.39s1.59,0.68,2.12,1.24c0.53,0.57,0.91,1.26,1.13,2.09
			c0.22,0.83,0.33,1.84,0.33,3.04v7.83c0,1.24-0.11,2.29-0.34,3.16c-0.23,0.86-0.6,1.6-1.12,2.2c-0.52,0.6-1.21,1.05-2.08,1.33
			c-0.86,0.28-1.92,0.43-3.18,0.43H68z M71.96,123.77h1.13c0.39,0,0.74-0.04,1.04-0.1s0.54-0.15,0.75-0.25
			c0.2-0.1,0.37-0.25,0.5-0.47c0.14-0.22,0.24-0.42,0.31-0.6c0.07-0.18,0.12-0.46,0.16-0.83c0.04-0.37,0.06-0.69,0.07-0.95
			s0.01-0.65,0.01-1.17v-7.94c0-0.51-0.01-0.93-0.03-1.24c-0.02-0.31-0.06-0.63-0.12-0.95c-0.07-0.32-0.16-0.56-0.29-0.74
			c-0.13-0.17-0.29-0.33-0.5-0.48c-0.21-0.14-0.47-0.24-0.79-0.3c-0.31-0.06-0.69-0.08-1.14-0.08h-1.09V123.77z"/>
		<path class="st1" d="M82.96,126.55v-21.71h3.9v21.71H82.96z"/>
		<path class="st1" d="M89.07,126.55l4.41-21.71h4.13l4.4,21.71h-3.68l-0.88-5.04h-3.76l-0.89,5.04H89.07z M94.11,118.92h2.91
			l-1.45-8.92L94.11,118.92z"/>
		<path class="st1" d="M115.18,126.82c-1.45,0-2.61-0.46-3.48-1.38c-0.87-0.92-1.3-2.12-1.3-3.6c0-1.27,0.29-2.45,0.86-3.55
			c0.58-1.1,1.31-2.07,2.21-2.91c-0.13-0.27-0.37-0.72-0.71-1.36c-0.34-0.63-0.6-1.14-0.78-1.51s-0.35-0.85-0.52-1.43
			s-0.25-1.13-0.25-1.65c0-1.42,0.42-2.59,1.26-3.5c0.84-0.91,1.97-1.37,3.37-1.37c1.36,0,2.49,0.39,3.39,1.17
			c0.9,0.78,1.35,1.83,1.35,3.15c0,0.67-0.11,1.33-0.33,1.98c-0.22,0.65-0.53,1.27-0.94,1.85c-0.41,0.58-0.79,1.07-1.13,1.47
			c-0.34,0.39-0.75,0.84-1.23,1.34c-0.09,0.09-0.15,0.15-0.2,0.2l2.8,4.75c0.38-0.78,0.67-2.2,0.85-4.28h3.06
			c0,2.22-0.62,4.36-1.86,6.43c0.2,0.24,0.48,0.46,0.83,0.66c0.35,0.2,0.71,0.3,1.08,0.31v3.2c-0.19,0.04-0.37,0.07-0.52,0.07
			c-0.24,0-0.49-0.04-0.73-0.11c-0.24-0.07-0.45-0.15-0.61-0.22c-0.16-0.07-0.37-0.2-0.63-0.4s-0.43-0.33-0.5-0.39
			c-0.08-0.07-0.26-0.23-0.53-0.5c-0.28-0.27-0.42-0.41-0.44-0.43c-0.49,0.63-1.11,1.12-1.87,1.47
			C116.96,126.64,116.12,126.82,115.18,126.82z M115.22,124.08c0.93,0,1.74-0.43,2.41-1.3c-1.8-3.08-2.73-4.7-2.79-4.86
			c-0.36,0.52-0.64,1.12-0.85,1.79c-0.21,0.67-0.31,1.34-0.31,1.99c0,0.69,0.13,1.26,0.41,1.7
			C114.35,123.86,114.73,124.08,115.22,124.08z M115.63,113.78c0.43-0.62,0.82-1.41,1.18-2.36c0.36-0.96,0.54-1.83,0.54-2.61
			c0-0.44-0.13-0.79-0.39-1.05s-0.6-0.39-1.02-0.39c-0.45,0-0.79,0.19-1.04,0.58c-0.24,0.38-0.37,0.86-0.37,1.41
			c0,0.17,0.01,0.33,0.02,0.5c0.01,0.17,0.04,0.35,0.07,0.54c0.03,0.19,0.07,0.37,0.1,0.52c0.03,0.16,0.08,0.34,0.14,0.55
			c0.06,0.21,0.11,0.38,0.14,0.5c0.03,0.13,0.09,0.3,0.16,0.52c0.07,0.22,0.13,0.37,0.16,0.45s0.08,0.23,0.16,0.45
			C115.58,113.62,115.62,113.74,115.63,113.78z"/>
		<path class="st1" d="M133.08,126.55v-21.71h9.09v2.79h-5.13v6.23h4.06v2.79h-4.06v7.16h5.2v2.74H133.08z"/>
		<path class="st1" d="M144.52,126.55v-21.71h2.72l5.32,12.3v-12.3h3.27v21.71h-2.59l-5.37-12.92v12.92H144.52z"/>
		<path class="st1" d="M161.2,126.55v-18.79h-3.64v-2.92h11.12v2.92h-3.52v18.79H161.2z"/>
		<path class="st1" d="M170.4,126.55v-21.71h9.09v2.79h-5.13v6.23h4.06v2.79h-4.06v7.16h5.2v2.74H170.4z"/>
		<path class="st1" d="M181.84,126.55v-21.71h4.98c1.14,0,2.13,0.09,2.95,0.28c0.82,0.19,1.53,0.5,2.14,0.94
			c0.61,0.44,1.06,1.04,1.36,1.79c0.3,0.76,0.45,1.68,0.45,2.77c0,1.36-0.2,2.48-0.61,3.34c-0.41,0.86-1.08,1.49-2.01,1.89
			l3.01,10.7h-3.97l-2.59-9.91h-1.75v9.91H181.84z M185.79,114.11h0.96c1.17,0,2-0.25,2.5-0.75c0.49-0.5,0.74-1.35,0.74-2.55
			c0-1.16-0.21-1.99-0.64-2.49s-1.21-0.75-2.36-0.75h-1.19V114.11z"/>
		<path class="st1" d="M198.83,126.55v-18.79h-3.64v-2.92h11.12v2.92h-3.52v18.79H198.83z"/>
		<path class="st1" d="M206.81,126.55l4.41-21.71h4.13l4.4,21.71h-3.68l-0.88-5.04h-3.76l-0.89,5.04H206.81z M211.85,118.92h2.91
			l-1.45-8.92L211.85,118.92z"/>
		<path class="st1" d="M222,126.55v-21.71h3.9v21.71H222z"/>
		<path class="st1" d="M229.24,126.55v-21.71h2.72l5.32,12.3v-12.3h3.27v21.71h-2.59l-5.37-12.92v12.92H229.24z"/>
		<path class="st1" d="M243.76,126.55l0.35-21.71h4.06l3.14,15.26l3.23-15.26h3.97l0.37,21.71h-2.99l-0.26-14.95l-3.13,14.95h-2.32
			l-3.17-15.01l-0.24,15.01H243.76z"/>
		<path class="st1" d="M262.1,126.55v-21.71h9.09v2.79h-5.13v6.23h4.06v2.79h-4.06v7.16h5.2v2.74H262.1z"/>
		<path class="st1" d="M273.53,126.55v-21.71h2.72l5.32,12.3v-12.3h3.27v21.71h-2.59l-5.37-12.92v12.92H273.53z"/>
		<path class="st1" d="M290.21,126.55v-18.79h-3.64v-2.92h11.12v2.92h-3.52v18.79H290.21z"/>
		<path class="st1" d="M311.4,126.83c-2.05,0-3.53-0.64-4.43-1.92c-0.9-1.28-1.36-3.15-1.36-5.6v-7.07c0-1.25,0.1-2.32,0.29-3.23
			c0.2-0.9,0.53-1.7,0.99-2.38c0.46-0.68,1.1-1.19,1.91-1.53c0.81-0.34,1.81-0.51,2.99-0.51c2.15,0,3.69,0.53,4.62,1.58
			c0.93,1.05,1.4,2.65,1.4,4.79v1.06h-3.78v-1.13c0-0.48-0.01-0.87-0.03-1.18s-0.07-0.61-0.16-0.92c-0.08-0.31-0.2-0.55-0.36-0.71
			c-0.16-0.17-0.37-0.3-0.64-0.41c-0.27-0.1-0.6-0.16-1-0.16c-0.3,0-0.56,0.04-0.79,0.11c-0.23,0.07-0.43,0.17-0.58,0.27
			c-0.16,0.11-0.29,0.26-0.4,0.47c-0.11,0.2-0.19,0.4-0.25,0.58c-0.06,0.19-0.1,0.43-0.13,0.73c-0.03,0.3-0.05,0.56-0.06,0.79
			c-0.01,0.23-0.01,0.52-0.01,0.88v8.76c0,1.31,0.16,2.27,0.48,2.87c0.32,0.61,0.94,0.91,1.85,0.91c0.47,0,0.87-0.09,1.18-0.27
			c0.32-0.18,0.57-0.45,0.75-0.81c0.18-0.36,0.3-0.78,0.38-1.24c0.07-0.47,0.11-1.03,0.11-1.7v-1.78h-2.34v-2.55h5.91v11.03h-2.57
			l-0.29-2.2C314.42,126,313.2,126.83,311.4,126.83z"/>
		<path class="st1" d="M320.92,126.55v-21.71h4.98c1.14,0,2.13,0.09,2.95,0.28c0.82,0.19,1.53,0.5,2.14,0.94
			c0.61,0.44,1.06,1.04,1.36,1.79c0.3,0.76,0.45,1.68,0.45,2.77c0,1.36-0.2,2.48-0.61,3.34c-0.41,0.86-1.08,1.49-2.01,1.89
			l3.01,10.7h-3.97l-2.59-9.91h-1.75v9.91H320.92z M324.87,114.11h0.96c1.17,0,2-0.25,2.5-0.75c0.49-0.5,0.74-1.35,0.74-2.55
			c0-1.16-0.21-1.99-0.64-2.49s-1.21-0.75-2.36-0.75h-1.19V114.11z"/>
		<path class="st1" d="M341.7,126.81c-2.23,0-3.84-0.61-4.81-1.82s-1.45-2.99-1.45-5.33v-8.01c0-1.15,0.11-2.15,0.33-3
			c0.22-0.85,0.57-1.58,1.05-2.2c0.48-0.62,1.13-1.08,1.95-1.39c0.81-0.31,1.79-0.46,2.93-0.46c2.23,0,3.83,0.6,4.8,1.79
			c0.97,1.2,1.46,2.95,1.46,5.26v8.01c0,1.13-0.11,2.13-0.33,2.99s-0.58,1.61-1.06,2.24c-0.48,0.63-1.13,1.11-1.95,1.43
			C343.81,126.65,342.83,126.81,341.7,126.81z M340.71,123.7c0.27,0.11,0.6,0.17,0.99,0.17s0.71-0.06,0.98-0.17
			c0.27-0.11,0.49-0.26,0.65-0.44c0.16-0.18,0.29-0.42,0.38-0.72c0.09-0.3,0.15-0.59,0.18-0.89s0.05-0.65,0.05-1.06v-9.86
			c0-0.52-0.03-0.96-0.08-1.31c-0.05-0.35-0.16-0.68-0.31-0.99c-0.15-0.31-0.38-0.54-0.69-0.69c-0.31-0.15-0.69-0.23-1.17-0.23
			c-0.47,0-0.86,0.08-1.17,0.23s-0.54,0.38-0.69,0.69c-0.15,0.31-0.25,0.64-0.3,0.99c-0.05,0.35-0.08,0.79-0.08,1.31v9.86
			c0,0.41,0.02,0.76,0.05,1.06s0.09,0.59,0.18,0.89s0.22,0.54,0.37,0.72C340.22,123.44,340.44,123.59,340.71,123.7z"/>
		<path class="st1" d="M356.8,126.81c-0.97,0-1.81-0.11-2.52-0.34c-0.71-0.23-1.3-0.55-1.75-0.96c-0.46-0.41-0.82-0.94-1.1-1.58
			s-0.47-1.34-0.58-2.08c-0.11-0.75-0.16-1.61-0.16-2.6v-14.42h3.84v14.82c0,0.51,0.01,0.94,0.04,1.3c0.03,0.36,0.08,0.73,0.17,1.13
			c0.09,0.39,0.21,0.71,0.37,0.94c0.16,0.24,0.38,0.43,0.67,0.59c0.28,0.16,0.63,0.24,1.03,0.24c0.4,0,0.74-0.08,1.03-0.24
			c0.28-0.16,0.5-0.35,0.66-0.59c0.15-0.24,0.27-0.55,0.37-0.94c0.09-0.39,0.15-0.77,0.17-1.12c0.02-0.35,0.03-0.79,0.03-1.3v-14.82
			h3.84v14.42c0,0.99-0.05,1.85-0.16,2.6c-0.11,0.75-0.3,1.44-0.58,2.08s-0.64,1.17-1.09,1.58c-0.45,0.41-1.04,0.73-1.75,0.96
			C358.59,126.69,357.76,126.81,356.8,126.81z"/>
		<path class="st1" d="M365.96,126.55v-21.71h6.25c3.7,0,5.55,2.06,5.55,6.17c0,2.02-0.51,3.49-1.52,4.43s-2.44,1.41-4.28,1.41
			h-2.04v9.7H365.96z M369.92,114.07h1.27c1.12,0,1.87-0.22,2.27-0.66c0.39-0.44,0.59-1.25,0.59-2.43c0-0.67-0.03-1.19-0.08-1.56
			c-0.05-0.37-0.17-0.7-0.37-1c-0.19-0.3-0.48-0.51-0.86-0.62c-0.38-0.11-0.89-0.17-1.54-0.17h-1.28V114.07z"/>
	</g>
</g>
</svg>
